PathFileType	4	(X/Y/Z)	Patient4_TMGait_0pt2_02_left_03.trc.trc
DataRate	CameraRate	NumFrames	NumMarkers	Units	OrigDataRate	OrigDataStartFrame	OrigNumFrames
44.303797468354	44.303797468354	4	33	mm	44.303797468354	124	       141
Frame#	Time	R.Midfoot.Superior			Sacral			L.Shoulder			Chest			R.Shoulder			Neck			R.ASIS			L.ASIS			R.Thigh.Superior			R.Thigh.Lateral			R.Thigh.Inferior			R.Patella			L.Thigh.Superior			L.Thigh.Lateral			L.Thigh.Inferior			L.Patella			L.Shank.Superior			L.Shank.Lateral			L.Shank.Inferior			R.Shank.Superior			R.Shank.Lateral			R.Shank.Inferior			R.Heel			R.Midfoot.Lateral			R.Toe			L.Heel			L.Midfoot.Lateral			L.Midfoot.Superior			L.Toe			L.Elbow			L.Wrist			R.Elbow			R.Wrist			
		X1	Y1	Z1	X2	Y2	Z2	X3	Y3	Z3	X4	Y4	Z4	X5	Y5	Z5	X6	Y6	Z6	X7	Y7	Z7	X8	Y8	Z8	X9	Y9	Z9	X10	Y10	Z10	X11	Y11	Z11	X12	Y12	Z12	X13	Y13	Z13	X14	Y14	Z14	X15	Y15	Z15	X16	Y16	Z16	X17	Y17	Z17	X18	Y18	Z18	X19	Y19	Z19	X20	Y20	Z20	X21	Y21	Z21	X22	Y22	Z22	X23	Y23	Z23	X24	Y24	Z24	X25	Y25	Z25	X26	Y26	Z26	X27	Y27	Z27	X28	Y28	Z28	X29	Y29	Z29	X30	Y30	Z30	X31	Y31	Z31	X32	Y32	Z32	X33	Y33	Z33	

124	9.296285714286	827.257816406072	95.958985050281	580.696570227236	742.105328794730	1005.228460656983	573.559818103577	868.930592855758	1426.839455635251	348.256842279390	1014.248904247859	1354.969578880153	471.218539846437	988.767262433312	1433.635725419513	658.655797482164	897.645804001125	1488.200972280916	501.147150129612	987.522500747623	926.779674483450	630.083278716751	911.455904507196	957.495138636212	367.325165157761	986.485569782593	717.540632083942	589.656021221742	898.453697902674	614.486732505237	659.018092198424	949.049024344164	557.720584347524	565.937182849647	933.315417604861	467.560917087744	570.742287840745	982.132198778500	762.284612247936	380.723338490841	910.899247130245	637.023471862474	314.162016400783	1015.497401923022	572.975176176580	364.060971575213	1034.537031090508	510.183934142886	361.231243269535	1019.675698803043	439.584938491167	347.945994977708	952.598498275207	311.906663257873	291.451608060007	1040.918113791403	209.572962922863	340.250791398602	886.510896354280	385.957484966562	579.345338656442	800.585340273152	294.721664589947	643.054798555831	816.771399965117	197.608841012481	573.717510598927	653.787878016429	47.391804001469	544.536918865040	736.707328464090	38.715631526279	618.758739635958	944.765714603870	38.851699901322	610.211620894200	950.944557656363	35.250108493035	365.956284624001	1030.681938548113	37.044856445488	291.468749837360	1104.040694240362	109.812730604206	319.529767085844	1237.644384949854	72.967340821904	302.458668299856	702.259368964909	1113.414706366364	284.044024610774	649.438743825466	861.190674709366	335.173956878925	1217.860030384434	1193.478353538182	750.368874653170	1410.058347695705	1319.553422736711	643.569178522924	
125	9.318857142857	822.924034429233	96.044023677498	580.719022446046	743.502097099457	1004.392206218678	570.180588702647	868.935946537626	1425.821707161488	343.772932029744	1014.793989046795	1354.256593085989	466.317913131668	989.815370207142	1432.937066141275	653.795512480538	898.239725475671	1487.470595685903	496.485657960950	989.132930260500	926.439536350575	626.318607738429	912.383893611315	956.178916395410	363.669363101708	987.204366012133	716.755983335205	586.986373895737	898.334803921834	614.272233559712	656.699387521092	948.432524970444	556.864053742641	563.964023499735	931.861602137841	466.667401573774	569.106370831284	983.221501610954	760.748181701537	377.575366833621	910.485572181535	635.159137944402	312.722952478121	1015.361149153600	571.490278912024	362.060850803022	1033.111515431888	508.339391549795	359.965637502807	1018.781819722256	437.654787805450	346.881171219070	951.285385232283	310.080224866037	291.561660889913	1039.209925332366	208.024103266439	340.879100689355	884.435854519321	385.452884454430	578.036141641138	797.871712143669	295.134441494663	642.315883867042	813.240255528102	197.593981911582	573.337028699371	649.404958878525	48.091018402356	544.650597093301	732.299756097729	39.047165086448	618.840211660216	940.328949347278	38.734456990472	610.239766789478	947.990180237662	35.668251575126	367.436438330541	1027.738336146165	36.419135627738	292.954537099699	1101.912999252315	107.798918221669	321.328197338160	1234.824750021653	69.028212585832	304.534439704819	703.460526128270	1111.564484379567	279.693412700210	651.861157313176	858.925559018153	330.051334446538	1219.893727604112	1193.536796380316	743.885610228858	1409.891574076024	1321.830958800984	635.762522318315	
126	9.341428571429	818.695416984933	96.189432589388	580.750537089837	744.946112193290	1003.731806077372	566.386992844782	869.345824488064	1424.889240611558	338.892319961309	1015.564599608798	1353.660529793073	461.241703054300	990.859706381128	1432.469720063822	648.696119868257	898.995947017375	1486.882593566983	491.430735583326	990.746806611104	926.251018944206	622.500406585481	913.669253808562	955.112013543917	359.865862526618	988.101095551898	716.119553788385	584.265081598632	898.409794532648	614.177367735698	654.232729063685	948.199668174925	556.134979459434	561.911795448276	930.870401662975	465.850127683032	567.391446770875	985.104145128756	759.839761436882	374.715658161182	911.616692979045	633.917720282653	311.057827197742	1016.554937971371	570.610888789666	360.234731751096	1033.048859116718	506.817051480634	358.729839093214	1018.896237107697	435.921027618659	345.775075448507	950.447430064247	308.890464357838	291.177527448159	1037.121525197542	206.544351923908	341.247657226088	882.697320868360	385.043082656395	576.628126125236	795.404159294428	295.760339063842	641.483959271364	809.904496354721	197.741586011719	572.930641878467	645.101247658927	49.117216749788	544.773461587497	727.951971078248	39.558740442810	618.918175002003	935.930046239910	38.583702652795	610.280245787436	943.613458417547	36.341051193361	368.417852805850	1023.405283864669	35.987096987778	293.922852718320	1098.652758670146	105.769129963827	322.730700468437	1230.834710015388	64.799455177689	306.107231728512	705.284676880288	1109.782215890985	274.470833323215	655.078657330313	856.653986082738	323.800651019557	1221.395665732277	1193.331957964534	737.745530424862	1409.893188625899	1322.927564503269	628.403020035624	
127	9.364000000000	814.572131214222	96.403179349851	580.790788641615	746.426595897740	1003.317369369942	562.163154187359	870.156450912469	1424.121140312461	333.680480875474	1016.562379835650	1353.247397475354	456.041905167934	991.903579835939	1432.277918849065	643.417114236398	899.909405719101	1486.495046243095	486.067350949121	992.328841783777	926.243703638453	618.606610889667	915.303103465733	954.368001593836	355.891546378647	989.022923275588	715.658614205045	581.464221700357	898.528542176405	614.263134570764	651.637300781037	948.161713290725	555.573871852834	559.791589560125	930.148116385497	465.175244675852	565.624072358791	987.644867428732	759.546720238108	372.041463234941	914.071707547680	633.278237417339	309.093610873712	1018.863817742717	570.271177086005	358.472132268074	1034.184752795621	505.641197904124	357.467139313933	1019.907670333778	434.435504243421	344.610809911574	950.167774486245	308.245924442251	290.287938823681	1034.911467271454	205.169994541889	341.375072094542	881.153777223088	384.790279192453	575.152790864774	793.063693947032	296.626254645470	640.562861610751	806.707447990254	198.086601241815	572.507658599810	640.869722660967	50.474472887438	544.897750613967	723.656000303430	40.260841554530	618.989767471464	931.556386747154	38.406358199880	610.329952977173	938.421872357733	37.063649428147	368.935781171394	1018.284159222478	35.685541623413	294.419793230875	1094.683154632635	103.863768462965	323.742642849095	1226.186750532624	60.734533524532	307.204408325297	707.706603535350	1108.168838984258	268.438571201311	659.085553520587	854.479415087225	316.475510609670	1222.492303077994	1193.030196965170	731.954961305721	1410.216204873894	1323.029022284534	621.502218183429	
